# xmcd
#
# Track frame offsets:
#   150
#   14000
#   29013
#   44320
#   58775
#   73133
#   91497
#   104251
#   120570
#   138260
#   152496
#   170055
#   185597
#
# Disc length: 2674 seconds
#
# Revision: 0
# Processed by: cddbd v1.5.2PL0 Copyright (c) Steve Scherf et al.
# Submitted via: uFREEDB ActiveX Control 1.5
#
DISCID=b90a700d
DTITLE=Emilio e Eduardo - Pancadao
DYEAR=2006
DGENRE=Country
TTITLE0=chora carolina
TTITLE1=nao pisa nao
TTITLE2=pancadao
TTITLE3=mil beijos de amor
TTITLE4=a galera do chapeu
TTITLE5=na minha imaginacao
TTITLE6=bailao na roca
TTITLE7=trope
TTITLE8=um anjo caiu do ceu
TTITLE9=comitiva quebradeira
TTITLE10=noventa por cento mais muie
TTITLE11=apaixonado por voce
TTITLE12=vamos fazer um trope
EXTD=
EXTT0=
EXTT1=
EXTT2=
EXTT3=
EXTT4=
EXTT5=
EXTT6=
EXTT7=
EXTT8=
EXTT9=
EXTT10=
EXTT11=
EXTT12=
PLAYORDER=
